<?xml version="1.0" encoding="UTF-8"?>
<!DOCTYPE svg PUBLIC "-//W3C//DTD SVG 1.1//EN" "http://www.w3.org/Graphics/SVG/1.1/DTD/svg11.dtd">
<!-- Creator: CorelDRAW 2020 (64-Bit) -->
<svg xmlns="http://www.w3.org/2000/svg" xml:space="preserve" width="100%" height="100%" version="1.1" style="shape-rendering:geometricPrecision; text-rendering:geometricPrecision; image-rendering:optimizeQuality; fill-rule:evenodd; clip-rule:evenodd"
viewBox="0 0 1968.5 1968.5"
 xmlns:xlink="http://www.w3.org/1999/xlink"
 xmlns:xodm="http://www.corel.com/coreldraw/odm/2003">
 <defs>
  <style type="text/css">
   <![CDATA[
    .fil0 {fill:#236EFD}
    .fil1 {fill:white}
   ]]>
  </style>
 </defs>
 <g id="Layer_x0020_1">
  <metadata id="CorelCorpID_0Corel-Layer"/>
  <g id="_1593086811792">
   <path class="fil0" d="M1868.69 110.48c44.34,58.59 64.33,155.7 74.17,273.76 13.01,176.19 18.24,387.61 23.24,606.07 -6.47,222.54 -9.1,446.97 -23.24,606.07 -11.15,122.13 -34.86,203.91 -74.44,253.51 -50.35,49.53 -146.94,91.35 -284.66,101.26 -167.5,14.29 -374.16,14.13 -602.15,19.75 -253.44,-4.34 -425.32,-2.48 -605.64,-19.67 -140.67,-9.76 -232.69,-51.07 -289.31,-100.95 -41.94,-56.3 -54.22,-116.17 -65.84,-256.5 -14.52,-162.05 -17.74,-381.64 -23.24,-602.28 8.25,-219.48 8.75,-440.69 23.35,-606.04 9.8,-130.45 25.25,-218.16 64.87,-273.92 55.57,-47.36 150.38,-70.9 291.82,-82.52 193.65,-22.65 395.27,-27.11 603.7,-26.6 214.52,0.35 420.44,6.46 604.17,24.55 123.93,9.91 226.48,31.25 282.99,83.48l0.2 0z"/>
   <path class="fil1" d="M1163.44 1418.5c-16.14,16.14 -96.86,32.29 -121.07,32.29 -48.43,8.07 -104.93,8.07 -145.29,0 -72.65,-16.14 -113,-32.29 -169.5,-72.65 -40.36,-16.14 -32.29,-24.22 -24.22,-40.36 40.36,-64.57 96.86,-121.07 153.36,-161.43 16.14,-16.14 32.29,-24.22 48.43,-32.29 24.22,-16.14 129.15,-80.72 153.36,-72.65 24.21,16.14 104.93,314.8 104.93,347.08l-0 0zm-387.44 -855.59c8.07,0 16.14,16.14 32.29,32.29l72.65 113c0,0 0,0 0,0 0,8.07 16.14,24.22 16.14,32.29l48.43 72.65c0,8.07 8.07,16.14 0,16.14 -8.07,16.14 -169.5,40.36 -201.79,40.36 -24.22,8.07 -201.79,24.22 -217.93,16.14 -8.07,-16.14 24.22,-88.79 32.29,-104.93 40.36,-80.72 96.86,-145.29 169.5,-185.65l48.43 -32.29 -0 0zm217.93 145.29c-8.07,-8.07 -16.14,-24.22 -24.21,-40.36l-64.57 -88.79c-8.07,-8.07 -8.07,-16.14 -16.14,-16.14 0,-8.07 0,-8.07 -8.07,-16.14 0,-8.07 0,-8.07 0,-16.14 16.15,-8.07 80.72,-8.07 104.93,-8.07 96.86,0 193.72,32.29 266.36,80.72 40.36,32.29 40.36,32.29 24.22,48.43 -32.29,40.36 -96.86,88.79 -145.29,113 -16.14,8.07 -72.65,40.35 -88.79,32.29 0,-8.07 -48.43,-88.79 -48.43,-88.79l0 -0zm250.22 661.87c0,-8.07 -16.15,-64.57 -16.15,-72.65 -16.14,-72.65 -40.35,-145.29 -64.57,-217.93 -8.07,-40.35 -16.14,-40.35 32.29,-40.35 24.22,0 64.57,-8.07 88.79,0 32.29,0 137.22,8.07 153.36,24.21 8.07,24.22 -16.14,80.72 -24.22,96.86 -8.07,32.29 -24.21,56.5 -40.35,88.79 -16.15,24.22 -40.36,48.43 -56.5,64.57 -8.07,8.07 -56.5,56.5 -72.65,56.5l-0 0zm-726.45 -395.51c8.07,0 56.5,0 72.65,0 113,-8.07 250.22,-24.21 355.15,-56.5 48.43,-8.07 48.43,-16.14 56.5,8.07 8.07,16.14 24.22,48.43 24.22,56.5 -8.07,8.07 -24.22,8.07 -32.29,16.14 -8.07,0 -16.14,8.07 -32.29,8.07 -56.5,24.22 -121.07,64.57 -161.43,104.93 -31.42,20.94 -116.4,98.95 -129.15,137.21l-40.36 48.43c-8.07,0 -40.36,-48.43 -48.43,-64.57 -16.14,-24.22 -24.22,-48.43 -32.29,-72.65 -24.22,-40.36 -48.43,-145.29 -32.29,-185.65l0.01 0zm573.09 -96.85c16.14,-16.15 40.36,-16.15 64.57,-32.29 24.22,-16.14 48.43,-24.21 64.57,-40.36 24.22,-16.14 40.36,-32.29 56.5,-48.43 16.14,-8.07 24.21,-16.14 32.29,-24.22 40.36,-40.35 32.29,-48.43 48.43,-24.21 40.36,56.5 64.57,113 80.72,177.57 0,16.14 16.14,80.72 8.07,88.79 -8.07,8.07 -64.57,-8.07 -72.65,-8.07 -32.29,0 -56.5,0 -80.72,-8.07 -32.29,0 -56.5,0 -88.79,0 -8.07,0 -72.65,8.07 -80.72,8.07 0,-8.07 -40.36,-80.72 -32.29,-88.79l0 0.01zm-129.15 -443.94c-16.14,0 -40.36,0 -64.57,8.07 -104.93,16.15 -201.79,64.57 -282.51,129.15 -56.5,56.5 -113,129.15 -145.29,201.79 -32.29,88.79 -40.36,145.29 -40.36,234.07 0,80.72 32.29,169.5 56.5,226.01 56.5,121.07 161.43,209.86 282.51,266.36 72.65,32.29 145.29,40.36 234.07,40.36 72.65,0 169.5,-32.29 217.93,-56.5 121.07,-56.5 217.93,-161.43 274.43,-282.5 8.07,-40.36 24.22,-72.65 32.29,-113 0,-16.14 0,-40.36 8.07,-56.5 0,-16.14 0,-24.21 0,-32.29 0,-16.14 0,-24.22 0,-32.29 0,-104.93 -48.43,-226.01 -113,-306.72 -40.36,-56.5 -80.72,-96.86 -137.22,-137.22 -56.5,-40.36 -129.15,-64.57 -201.79,-80.72 -32.29,0 -96.86,-8.07 -121.07,-8.07z"/>
  </g>
 </g>
</svg>
