<?xml version="1.0" encoding="UTF-8"?>
<!DOCTYPE svg PUBLIC "-//W3C//DTD SVG 1.1//EN" "http://www.w3.org/Graphics/SVG/1.1/DTD/svg11.dtd">
<!-- Creator: CorelDRAW 2020 (64-Bit) -->
<svg xmlns="http://www.w3.org/2000/svg" xml:space="preserve" width="100%" height="100%" version="1.1" style="shape-rendering:geometricPrecision; text-rendering:geometricPrecision; image-rendering:optimizeQuality; fill-rule:evenodd; clip-rule:evenodd"
viewBox="0 0 1968.5 1968.5"
 xmlns:xlink="http://www.w3.org/1999/xlink"
 xmlns:xodm="http://www.corel.com/coreldraw/odm/2003">
 <defs>
  <style type="text/css">
   <![CDATA[
    .fil0 {fill:#236EFD}
    .fil1 {fill:white;fill-rule:nonzero}
   ]]>
  </style>
 </defs>
 <g id="Layer_x0020_1">
  <metadata id="CorelCorpID_0Corel-Layer"/>
  <g id="_1593101867952">
   <path class="fil0" d="M1868.69 110.48c44.34,58.59 64.33,155.7 74.17,273.76 13.01,176.19 18.24,387.61 23.24,606.07 -6.47,222.54 -9.1,446.97 -23.24,606.07 -11.15,122.13 -34.86,203.91 -74.44,253.51 -50.35,49.53 -146.94,91.35 -284.66,101.26 -167.5,14.29 -374.16,14.13 -602.15,19.75 -253.44,-4.34 -425.32,-2.48 -605.64,-19.67 -140.67,-9.76 -232.69,-51.07 -289.31,-100.95 -41.94,-56.3 -54.22,-116.17 -65.84,-256.5 -14.52,-162.05 -17.74,-381.64 -23.24,-602.28 8.25,-219.48 8.75,-440.69 23.35,-606.04 9.8,-130.45 25.25,-218.16 64.87,-273.92 55.57,-47.36 150.38,-70.9 291.82,-82.52 193.65,-22.65 395.27,-27.11 603.7,-26.6 214.52,0.35 420.44,6.46 604.17,24.55 123.93,9.91 226.48,31.25 282.99,83.48l0.2 0z"/>
   <path class="fil1" d="M1194.47 433.76l-424.67 0c-188.18,0 -340.87,152.69 -340.87,340.87l0 424.37c0,188.18 152.39,340.57 340.87,340.57l424.37 0c188.18,0 340.57,-152.39 340.57,-340.57l0 -424.37c0.3,-188.48 -152.09,-340.87 -340.28,-340.87zm234.41 724.38c0,152.09 -123.17,275.26 -275.26,275.26l-342.96 0c-152.09,0 -275.26,-123.17 -275.26,-275.26l0 -342.95c0,-152.09 123.17,-275.26 275.26,-275.26l342.96 0c152.09,0 275.26,123.46 275.26,275.26l0 342.95z"/>
   <path class="fil1" d="M997.05 697.39c-161.04,0 -291.37,130.32 -291.37,291.36 0,160.74 130.33,291.37 291.37,291.37 160.74,0 291.36,-130.32 291.36,-291.37 -0.3,-161.04 -130.62,-291.36 -291.36,-291.36zm0 466.42c-96.92,0 -175.35,-78.43 -175.35,-175.35 0,-96.93 78.43,-175.36 175.35,-175.36 96.63,0 175.35,78.43 175.35,175.36 -0.3,96.92 -78.73,175.35 -175.35,175.35z"/>
   <path class="fil1" d="M1342.09 692.92c0,40.85 -33.1,73.96 -73.96,73.96 -40.85,0 -73.96,-33.1 -73.96,-73.96 0,-40.86 33.1,-74.26 73.96,-74.26 40.86,0 73.96,33.1 73.96,74.26z"/>
  </g>
 </g>
</svg>
