<?xml version="1.0" encoding="UTF-8"?>
<!DOCTYPE svg PUBLIC "-//W3C//DTD SVG 1.1//EN" "http://www.w3.org/Graphics/SVG/1.1/DTD/svg11.dtd">
<!-- Creator: CorelDRAW 2020 (64-Bit) -->
<svg xmlns="http://www.w3.org/2000/svg" xml:space="preserve" width="100%" height="100%" version="1.1" style="shape-rendering:geometricPrecision; text-rendering:geometricPrecision; image-rendering:optimizeQuality; fill-rule:evenodd; clip-rule:evenodd"
viewBox="0 0 1968.5 1968.5"
 xmlns:xlink="http://www.w3.org/1999/xlink"
 xmlns:xodm="http://www.corel.com/coreldraw/odm/2003">
 <defs>
  <style type="text/css">
   <![CDATA[
    .fil0 {fill:#236EFD}
    .fil1 {fill:white;fill-rule:nonzero}
   ]]>
  </style>
 </defs>
 <g id="Layer_x0020_1">
  <metadata id="CorelCorpID_0Corel-Layer"/>
  <g id="_1593087903744">
   <path class="fil0" d="M1868.69 110.48c44.34,58.59 64.33,155.7 74.17,273.76 13.01,176.19 18.24,387.61 23.24,606.07 -6.47,222.54 -9.1,446.97 -23.24,606.07 -11.15,122.13 -34.86,203.91 -74.44,253.51 -50.35,49.53 -146.94,91.35 -284.66,101.26 -167.5,14.29 -374.16,14.13 -602.15,19.75 -253.44,-4.34 -425.32,-2.48 -605.64,-19.67 -140.67,-9.76 -232.69,-51.07 -289.31,-100.95 -41.94,-56.3 -54.22,-116.17 -65.84,-256.5 -14.52,-162.05 -17.74,-381.64 -23.24,-602.28 8.25,-219.48 8.75,-440.69 23.35,-606.04 9.8,-130.45 25.25,-218.16 64.87,-273.92 55.57,-47.36 150.38,-70.9 291.82,-82.52 193.65,-22.65 395.27,-27.11 603.7,-26.6 214.52,0.35 420.44,6.46 604.17,24.55 123.93,9.91 226.48,31.25 282.99,83.48l0.2 0z"/>
   <path class="fil1" d="M661.25 1132.54c0,63.93 -52.23,116.16 -116.16,116.16 -63.93,0 -116.16,-52.23 -116.16,-116.16 0,-63.93 52.23,-116.16 116.16,-116.16l116.16 0 0 116.16 0 0zm58.55 0c0,-63.93 52.23,-116.16 116.16,-116.16 63.93,0 116.16,52.23 116.16,116.16l0 290.87c0,63.93 -52.23,116.16 -116.16,116.16 -63.93,0 -116.16,-52.23 -116.16,-116.16l0 -290.87zm116.16 -466.46c-63.93,0 -116.16,-52.23 -116.16,-116.16 0,-63.93 52.23,-116.16 116.16,-116.16 63.93,0 116.16,52.23 116.16,116.16l0 116.16 -116.16 0zm0 58.55c63.93,0 116.16,52.23 116.16,116.16 0,63.93 -52.23,116.16 -116.16,116.16l-290.87 -0c-63.93,0 -116.16,-52.23 -116.16,-116.16 0,-63.93 52.23,-116.16 116.16,-116.16l290.87 0zm466.46 116.16c0,-63.93 52.23,-116.16 116.16,-116.16 63.93,0 116.16,52.23 116.16,116.16 0,63.93 -52.23,116.16 -116.16,116.16l-116.16 -0 0 -116.16zm-58.55 0c0,63.93 -52.23,116.16 -116.16,116.16 -63.93,0 -116.16,-52.23 -116.16,-116.16l0 -290.87c0,-63.93 52.23,-116.16 116.16,-116.16 63.93,0 116.16,52.23 116.16,116.16l0 290.87zm-116.16 466.46c63.93,0 116.16,52.23 116.16,116.16 0,63.93 -52.23,116.16 -116.16,116.16 -63.93,0 -116.16,-52.23 -116.16,-116.16l0 -116.16 116.16 0zm0 -58.55c-63.93,0 -116.16,-52.23 -116.16,-116.16 0,-63.93 52.23,-116.16 116.16,-116.16l290.87 0c63.93,0 116.16,52.23 116.16,116.16 0,63.93 -52.23,116.16 -116.16,116.16l-290.87 -0z"/>
  </g>
 </g>
</svg>
