<?xml version="1.0" encoding="UTF-8"?>
<!DOCTYPE svg PUBLIC "-//W3C//DTD SVG 1.1//EN" "http://www.w3.org/Graphics/SVG/1.1/DTD/svg11.dtd">
<!-- Creator: CorelDRAW 2020 (64-Bit) -->
<svg xmlns="http://www.w3.org/2000/svg" xml:space="preserve" width="100%" height="100%" version="1.1" style="shape-rendering:geometricPrecision; text-rendering:geometricPrecision; image-rendering:optimizeQuality; fill-rule:evenodd; clip-rule:evenodd"
viewBox="0 0 1968.5 1968.5"
 xmlns:xlink="http://www.w3.org/1999/xlink"
 xmlns:xodm="http://www.corel.com/coreldraw/odm/2003">
 <defs>
  <style type="text/css">
   <![CDATA[
    .fil0 {fill:#236EFD}
    .fil1 {fill:white}
   ]]>
  </style>
 </defs>
 <g id="Layer_x0020_1">
  <metadata id="CorelCorpID_0Corel-Layer"/>
  <g id="_1593097385824">
   <path class="fil0" d="M1868.69 110.48c44.34,58.59 64.33,155.7 74.17,273.76 13.01,176.19 18.24,387.61 23.24,606.07 -6.47,222.54 -9.1,446.97 -23.24,606.07 -11.15,122.13 -34.86,203.91 -74.44,253.51 -50.35,49.53 -146.94,91.35 -284.66,101.26 -167.5,14.29 -374.16,14.13 -602.15,19.75 -253.44,-4.34 -425.32,-2.48 -605.64,-19.67 -140.67,-9.76 -232.69,-51.07 -289.31,-100.95 -41.94,-56.3 -54.22,-116.17 -65.84,-256.5 -14.52,-162.05 -17.74,-381.64 -23.24,-602.28 8.25,-219.48 8.75,-440.69 23.35,-606.04 9.8,-130.45 25.25,-218.16 64.87,-273.92 55.57,-47.36 150.38,-70.9 291.82,-82.52 193.65,-22.65 395.27,-27.11 603.7,-26.6 214.52,0.35 420.44,6.46 604.17,24.55 123.93,9.91 226.48,31.25 282.99,83.48l0.2 0z"/>
   <path class="fil1" d="M1269.87 902l0 -176.58c0,-11.75 -9.68,-21.43 -21.43,-21.43l-179.35 0 0 -248.81c0,-11.75 -9.68,-21.43 -21.43,-21.43l-153.08 0c-20.39,0 -32.83,11.4 -34.56,35.25 -6.22,88.81 -48.04,205.61 -182.11,252.95 -14.86,5.19 -24.53,19.01 -24.53,34.56l0 146.87c0,11.75 9.67,21.42 21.42,21.42l102.63 0 0 311.01c0,111.96 56.67,303.75 317.57,303.75 102.63,0 181.08,-36.98 210.45,-68.42 7.94,-8.3 4.49,-20.39 1.04,-31.45l-47.69 -138.91c-3.45,-9.68 -8.3,-15.21 -15.9,-16.93 -8.29,-2.07 -17.28,0.69 -27.65,4.83 -95.72,38.36 -146.86,-3.46 -146.86,-77.41l0 -287.86 180.04 0c11.75,0 21.43,-9.68 21.43,-21.43z"/>
  </g>
 </g>
</svg>
