<?xml version="1.0" encoding="UTF-8"?>
<!DOCTYPE svg PUBLIC "-//W3C//DTD SVG 1.1//EN" "http://www.w3.org/Graphics/SVG/1.1/DTD/svg11.dtd">
<!-- Creator: CorelDRAW 2020 (64-Bit) -->
<svg xmlns="http://www.w3.org/2000/svg" xml:space="preserve" width="100%" height="100%" version="1.1" style="shape-rendering:geometricPrecision; text-rendering:geometricPrecision; image-rendering:optimizeQuality; fill-rule:evenodd; clip-rule:evenodd"
viewBox="0 0 1968.5 1968.5"
 xmlns:xlink="http://www.w3.org/1999/xlink"
 xmlns:xodm="http://www.corel.com/coreldraw/odm/2003">
 <defs>
  <style type="text/css">
   <![CDATA[
    .fil0 {fill:#236EFD}
    .fil1 {fill:white}
   ]]>
  </style>
 </defs>
 <g id="Layer_x0020_1">
  <metadata id="CorelCorpID_0Corel-Layer"/>
  <path class="fil0" d="M1868.69 110.48c44.34,58.59 64.33,155.7 74.17,273.76 13.01,176.19 18.24,387.61 23.24,606.07 -6.47,222.54 -9.1,446.97 -23.24,606.07 -11.15,122.13 -34.86,203.91 -74.44,253.51 -50.35,49.53 -146.94,91.35 -284.66,101.26 -167.5,14.29 -374.16,14.13 -602.15,19.75 -253.44,-4.34 -425.32,-2.48 -605.64,-19.67 -140.67,-9.76 -232.69,-51.07 -289.31,-100.95 -41.94,-56.3 -54.22,-116.17 -65.84,-256.5 -14.52,-162.05 -17.74,-381.64 -23.24,-602.28 8.25,-219.48 8.75,-440.69 23.35,-606.04 9.8,-130.45 25.25,-218.16 64.87,-273.92 55.57,-47.36 150.38,-70.9 291.82,-82.52 193.65,-22.65 395.27,-27.11 603.7,-26.6 214.52,0.35 420.44,6.46 604.17,24.55 123.93,9.91 226.48,31.25 282.99,83.48l0.2 0z"/>
  <path id="Youtube" class="fil1" d="M1523.69 763.98c0,0 -10.81,-76.74 -43.95,-110.53 -42.06,-44.37 -89.19,-44.58 -110.79,-47.15 -154.74,-11.27 -386.86,-11.27 -386.86,-11.27l-0.48 0c0,0 -232.12,0 -386.86,11.27 -21.63,2.57 -68.73,2.78 -110.82,47.15 -33.14,33.8 -43.92,110.53 -43.92,110.53 0,0 -11.06,90.14 -11.06,180.24l0 84.5c0,90.13 11.06,180.24 11.06,180.24 0,0 10.78,76.74 43.92,110.53 42.09,44.37 97.35,42.98 121.95,47.61 88.46,8.56 375.98,11.2 375.98,11.2 0,0 232.36,-0.34 387.1,-11.62 21.6,-2.61 68.73,-2.81 110.79,-47.19 33.14,-33.8 43.95,-110.53 43.95,-110.53 0,0 11.06,-90.11 11.06,-180.25l0 -84.5c0,-90.1 -11.06,-180.24 -11.06,-180.24zm-656.02 367.13l-0.04 -312.9 298.78 156.99 -298.74 155.91z"/>
 </g>
</svg>
